<?xml version="1.0" ?><svg id="Layer_1" style="enable-background:new 0 0 50 50;" version="1.1" viewBox="0 0 50 50" xml:space="preserve" xmlns="http://www.w3.org/2000/svg" xmlns:xlink="http://www.w3.org/1999/xlink"><style type="text/css">
	.st0{fill:#F0C4DB;}
	.st1{fill:#FF9D9C;}
	.st2{fill:#9BEAF9;}
	.st3{fill:#E9F4BC;}
	.st4{fill:#505050;}
	.st5{fill:#FEBECC;}
	.st6{fill:#FFFFFF;}
	.st7{fill:#FDE4A1;}
	.st8{fill:#FEE7B5;}
	.st9{fill:#CDF6FC;}
	.st10{fill:#F2C6DD;}
	.st11{opacity:0.1;}
</style><g><path class="st0" d="M1.15,49.01H21.5c0-11.38-9.06-20.63-20.36-20.97V49.01z"/><g><path class="st1" d="M43.62,21.99c-0.46-3.11-1.68-5.97-3.47-8.39l3.17-3.17l-3.89-3.9l-3.17,3.17c-2.41-1.79-5.28-3.02-8.39-3.48    V1.74h-5.52v4.48c-3.11,0.46-5.97,1.68-8.38,3.48l-3.17-3.17l-3.9,3.9l3.17,3.17c-1.79,2.42-3.02,5.28-3.48,8.39H2.1v5.52h4.48    c0.46,3.11,1.68,5.97,3.48,8.39l-3.17,3.17l3.9,3.9l3.17-3.17c2.41,1.79,5.27,3.02,8.38,3.48v4.48h5.52v-4.48    c3.11-0.46,5.98-1.68,8.39-3.48l3.17,3.17l3.89-3.9l-3.17-3.17c1.79-2.42,3.02-5.28,3.47-8.39h4.48v-5.52H43.62z M25.1,37.77    c-7.19,0-13.03-5.83-13.03-13.03s5.83-13.03,13.03-13.03s13.03,5.83,13.03,13.03S32.29,37.77,25.1,37.77z"/><circle class="st3" cx="25.1" cy="24.75" r="8.75"/><g><path class="st4" d="M47.98,21.24c-0.03,0-0.07-0.01-0.11-0.01h-3.62c-0.49-2.72-1.54-5.27-3.13-7.56l2.72-2.71     c0.14-0.14,0.22-0.33,0.22-0.53c0-0.2-0.08-0.39-0.22-0.53L39.95,6c-0.29-0.29-0.78-0.29-1.06,0l-2.73,2.72     c-2.29-1.59-4.83-2.64-7.56-3.13V1.74c0-0.2-0.08-0.39-0.22-0.53s-0.33-0.22-0.53-0.22h-5.51c-0.2,0-0.39,0.08-0.53,0.22     c-0.14,0.14-0.22,0.33-0.22,0.53v3.85c-2.69,0.48-5.2,1.51-7.46,3.07l-0.1,0.06L11.31,6c-0.28-0.29-0.78-0.29-1.06,0l-3.9,3.9     c-0.14,0.14-0.22,0.33-0.22,0.53c0,0.2,0.08,0.39,0.22,0.53l2.72,2.72c-1.59,2.29-2.64,4.83-3.13,7.55H2.1     c-0.2,0-0.39,0.08-0.53,0.22c-0.14,0.14-0.22,0.34-0.22,0.53v5.52c0,0.2,0.08,0.39,0.22,0.53c0.14,0.14,0.33,0.22,0.53,0.22h3.84     c0.49,2.72,1.54,5.26,3.13,7.56l-2.72,2.72c-0.14,0.14-0.22,0.32-0.22,0.53c0,0.2,0.08,0.39,0.22,0.53l3.9,3.9     c0.28,0.28,0.77,0.28,1.06,0l2.72-2.73c0.53,0.37,1.08,0.71,1.64,1.02c0.35,0.2,0.82,0.06,1.02-0.29     c0.1-0.17,0.12-0.38,0.06-0.57c-0.05-0.19-0.18-0.35-0.35-0.45c-0.7-0.38-1.37-0.82-2-1.29c-0.29-0.21-0.72-0.18-0.98,0.07     l-2.64,2.64l-2.84-2.83l2.64-2.64c0.27-0.26,0.3-0.68,0.08-0.98c-1.77-2.37-2.92-5.16-3.34-8.05c-0.06-0.36-0.37-0.64-0.74-0.64     H2.85v-4.02h3.73c0.37,0,0.68-0.27,0.74-0.64c0.42-2.89,1.57-5.67,3.34-8.05c0.22-0.3,0.19-0.72-0.08-0.98l-2.64-2.63l2.84-2.84     l2.64,2.64c0.26,0.26,0.69,0.29,0.98,0.07c0.19-0.14,0.38-0.27,0.57-0.41c2.23-1.52,4.82-2.54,7.48-2.93     c0.37-0.05,0.64-0.36,0.64-0.74V2.49h4.01v3.73c0,0.37,0.28,0.69,0.64,0.74c2.91,0.43,5.69,1.58,8.06,3.34     c0.29,0.22,0.72,0.19,0.97-0.07l2.65-2.64l2.83,2.84l-2.64,2.63c-0.26,0.26-0.29,0.68-0.07,0.98c1.76,2.37,2.91,5.15,3.33,8.05     c0.06,0.37,0.37,0.64,0.75,0.64h3.73v4.02h-3.73c-0.38,0-0.69,0.28-0.75,0.64c-0.42,2.9-1.57,5.69-3.33,8.05     c-0.22,0.3-0.19,0.72,0.07,0.98l2.64,2.64l-2.83,2.83l-2.65-2.64c-0.25-0.25-0.68-0.28-0.97-0.07c-2.37,1.76-5.15,2.91-8.06,3.34     c-0.36,0.05-0.64,0.37-0.64,0.74v3.73h-4.01v-3.73c0-0.37-0.27-0.69-0.64-0.74c-0.85-0.13-1.7-0.31-2.52-0.56     c-0.4-0.12-0.82,0.11-0.94,0.5c-0.05,0.2-0.03,0.4,0.06,0.57c0.09,0.18,0.25,0.31,0.45,0.37c0.68,0.2,1.38,0.37,2.09,0.5v3.85     c0,0.19,0.08,0.38,0.22,0.53c0.14,0.14,0.33,0.21,0.53,0.21h5.51c0.2,0,0.39-0.07,0.53-0.21c0.14-0.14,0.22-0.33,0.22-0.53V43.9     c2.73-0.49,5.27-1.55,7.56-3.14l2.73,2.73c0.28,0.28,0.77,0.28,1.06-0.01l3.89-3.89c0.14-0.15,0.22-0.33,0.22-0.53     c0-0.2-0.08-0.39-0.22-0.53l-2.72-2.72c1.59-2.29,2.64-4.83,3.13-7.56h3.85c0.2,0,0.39-0.08,0.53-0.22     c0.14-0.14,0.22-0.33,0.22-0.53v-5.52C48.85,21.53,48.47,21.18,47.98,21.24z"/><path class="st4" d="M18.12,41.31c-0.37-0.16-0.82,0.03-0.98,0.4c-0.08,0.18-0.08,0.39,0,0.57c0.07,0.19,0.21,0.33,0.4,0.41     c0.09,0.04,0.19,0.06,0.29,0.06c0.3,0,0.57-0.18,0.69-0.46c0.08-0.18,0.08-0.38,0.01-0.57C18.45,41.53,18.31,41.39,18.12,41.31z"/><path class="st4" d="M38.88,24.75c0-7.6-6.18-13.78-13.78-13.78s-13.78,6.18-13.78,13.78s6.18,13.78,13.78,13.78     S38.88,32.34,38.88,24.75z M12.82,24.75c0-6.77,5.51-12.28,12.28-12.28s12.28,5.51,12.28,12.28S31.87,37.02,25.1,37.02     S12.82,31.51,12.82,24.75z"/><path class="st4" d="M34.6,24.75c0-5.24-4.26-9.5-9.5-9.5c-5.24,0-9.5,4.26-9.5,9.5c0,5.24,4.26,9.5,9.5,9.5     C30.34,34.24,34.6,29.98,34.6,24.75z M17.1,24.75c0-4.41,3.59-8,8-8c4.41,0,8,3.59,8,8c0,4.41-3.59,8-8,8     C20.69,32.74,17.1,29.16,17.1,24.75z"/><path class="st4" d="M24.35,27.91c0,0.41,0.34,0.75,0.75,0.75s0.75-0.34,0.75-0.75c0-0.98,0.5-1.93,1.37-2.6     c1.07-0.82,1.56-2.16,1.28-3.5c-0.28-1.32-1.35-2.39-2.66-2.66c-1.05-0.22-2.12,0.04-2.94,0.7c-0.82,0.66-1.29,1.65-1.29,2.7     c0,0.41,0.34,0.75,0.75,0.75s0.75-0.34,0.75-0.75c0-0.6,0.27-1.16,0.73-1.54c0.47-0.38,1.07-0.53,1.68-0.4     c0.74,0.15,1.35,0.76,1.5,1.5c0.16,0.77-0.12,1.54-0.73,2C25.06,25.08,24.35,26.46,24.35,27.91z"/><path class="st4" d="M25.63,30.94c0.14-0.14,0.22-0.34,0.22-0.53c0-0.2-0.08-0.4-0.22-0.53c-0.28-0.28-0.78-0.28-1.06,0     c-0.14,0.13-0.22,0.33-0.22,0.53c0,0.19,0.08,0.39,0.22,0.53s0.33,0.22,0.53,0.22C25.29,31.16,25.49,31.08,25.63,30.94z"/></g></g></g></svg>